<?xml version="1.0" encoding="UTF-8" standalone="no" ?>
<!DOCTYPE svg PUBLIC "-//W3C//DTD SVG 1.1//EN" "http://www.w3.org/Graphics/SVG/1.1/DTD/svg11.dtd">
<svg xmlns="http://www.w3.org/2000/svg" xmlns:xlink="http://www.w3.org/1999/xlink" version="1.1" width="1280" height="1024" viewBox="0 0 1280 1024" xml:space="preserve">
<desc>Created with Fabric.js 5.3.0</desc>
<defs>
</defs>
<g transform="matrix(1 0 0 1 640 512)" id="background-logo"  >
<rect style="stroke: none; stroke-width: 0; stroke-dasharray: none; stroke-linecap: butt; stroke-dashoffset: 0; stroke-linejoin: miter; stroke-miterlimit: 4; fill: rgb(255,255,255); fill-opacity: 0; fill-rule: nonzero; opacity: 1;"  paint-order="stroke"  x="-640" y="-512" rx="0" ry="0" width="1280" height="1024" />
</g>
<g transform="matrix(1.9211538461538462 0 0 1.9211538461538462 640 392.633980603028)" id="logo-logo"  >
<g style=""  paint-order="stroke"   >
		<g transform="matrix(1.2590366963022965 0 0 1.259036696302297 0 0)"  >
<linearGradient id="SVGID_213866" gradientUnits="userSpaceOnUse" gradientTransform="matrix(1 0 0 1 275.025592845839 266.7693653277893)"  x1="0" y1="0" x2="0" y2="79">
<stop offset="0%" style="stop-color:rgb(113,23,234);stop-opacity: 1"/>
<stop offset="100%" style="stop-color:rgb(234,96,96);stop-opacity: 1"/>
</linearGradient>
<path style="stroke: none; stroke-width: 1; stroke-dasharray: none; stroke-linecap: butt; stroke-dashoffset: 0; stroke-linejoin: miter; stroke-miterlimit: 4; fill: url(#SVGID_213866); fill-rule: evenodd; opacity: 1;"  paint-order="stroke"  transform=" translate(-388.7812748229195, -306.35151006389464)" d="M 359.7275085 344.8564758 C 336.3133239 344.8564758 313.0975647 342.3052978 289.6833801 341.8234253 C 282.76684570000003 341.6533203 274.8581848 340.802948 275.02828980000004 335.9556885 C 276.07708740000004 309.0265503 295.0692139 291.7919007 342.6345825 289.9493714 C 373.8440246 265.76986700000003 409.3621521 264.80606090000003 445.67395020000004 268.2076417 C 389.236145 265.6564637 377.72750850000006 287.5682679 386.0046692 288.4753724 C 395.18890380000005 288.957245 404.3448181 289.63757330000004 413.5290833 290.5446473 C 381.07238770000004 289.6659242 329.22671510000004 293.5493775 298.4991456 318.8344422 C 289.20150770000004 326.4879761 311.4818116 326.6013489 315.98892220000005 326.94152840000004 C 327.6393128 327.79190070000004 332.42987070000004 327.13995370000004 339.57315070000004 320.1667176 C 351.30859380000004 308.71475230000004 383.90701300000006 292.47222910000005 433.5983582 292.557251 C 437.9637146 281.870636 443.6046753 270.276947 455.5385132 269.6816712 C 462.7385254 269.0580445 480.1716004 284.2517396 484.05505370000003 290.346222 C 459.7054443 308.91317760000004 408.6818237 302.5352174 378.8613586 324.07852180000003 C 373.8440246 327.70687870000006 370.1306457 337.17459110000004 368.99679560000004 340.4911195 C 367.7211914 344.3179016 362.4771118 344.5163269 359.7275085 344.8564758 L 359.7275085 344.8564758 z M 358.3101807 331.2785339 L 346.6597901 332.3273315 C 344.13693240000003 332.5541076 339.8849793 336.15411370000004 339.6298524 338.67694090000003 L 339.6298524 338.67694090000003 C 339.4030763 341.17144770000004 343.1731568 340.2926941 345.7243348 340.32104490000006 L 357.4314271 340.4060974000001 C 359.9826051 340.4344482000001 362.221985 338.39349360000006 362.4771119 335.8706665000001 L 362.4771119 335.8706665000001 C 362.7038879 333.3761597 360.8330078 331.0517578 358.3101807 331.2785339 L 358.3101807 331.2785339 z M 285.3463745 329.1808777 L 295.40939330000003 330.2864075 C 297.59204100000005 330.5131836 301.2203979 333.6879883 301.3904724 335.87066649999997 L 301.3904724 335.87066649999997 C 301.5605469 338.05334469999997 298.3007202 337.2312927 296.118042 337.2029419 L 285.9700012 337.11788939999997 C 283.787323 337.08953859999997 281.8314209 335.2753906 281.6896972 333.12103269999994 L 281.6896972 333.12103269999994 C 281.5196228 330.9383545 283.1636963 328.9541321 285.3463745 329.1808777 L 285.3463745 329.1808777 z M 485.330658 294.201355 C 476.1747437 328.2454529 433.31491090000003 333.43286129999996 429.7716065 327.2533264 C 426.2849732 321.1871948 421.35269170000004 317.5871887 417.18576060000004 317.16198729999996 C 425.6330262 323.42654419999997 426.73852550000004 335.55883789999996 428.89285290000004 343.09899899999994 C 468.2660828 330.7399292 483.1196289 317.3604126 485.330658 294.201355 L 485.330658 294.201355 z M 502.5369568 281.6722107 C 494.40151979999996 289.184021 496.6975708 287.8233948 485.5007324 287.8233948 C 484.22512820000003 286.065918 482.2692261 283.9399414 479.9448242 281.7005615 L 502.5369568 281.6722107 z M 371.1227722 345.9336548 C 379.371582 345.9336548 387.6487732 345.9336548 395.9259338 345.9336548 C 397.6550598 326.8848267 413.5290832 322.7178955 422.6282959 342.8722229 C 421.0692444 330.3714294 415.2298584 320.1383667 402.2188416 319.7982178 C 388.2156982 320.0533142 376.2251282 332.4407349 371.1227722 345.9336548 L 371.1227722 345.9336548 z M 480.9085999 289.6092224 C 470.8172608 293.039154 460.41412360000004 293.9745788 448.4802552 293.43600460000005 C 449.6141053 285.41394040000006 451.9385377 278.49740600000007 460.9810487 277.8737793 C 466.5369568 278.2139587 476.5148926 285.3005676 480.9085999 289.6092224 L 480.9085999 289.6092224 z" stroke-linecap="round" />
</g>
</g>
</g>
<g transform="matrix(1.9211538461538462 0 0 1.9211538461538462 632.1722586538461 585.8289310857556)" id="text-logo"  >
<g style=""  paint-order="stroke"   >
		<g transform="matrix(1 0 0 1 0 0)" id="text-logo-path-0"  >
<path style="stroke: none; stroke-width: 0; stroke-dasharray: none; stroke-linecap: butt; stroke-dashoffset: 0; stroke-linejoin: miter; stroke-miterlimit: 4; fill: rgb(14,35,121); fill-rule: nonzero; opacity: 1;"  paint-order="stroke"  transform=" translate(-114.9, 20.07)" d="M 21.92 -8.76 L 25.93 -31.38 C 27.09 -37.76 22.39 -40.6 16.01 -40.6 L 4.35 -40.6 L -2.78 0 L 8.93 0.12 C 8 -1.39 7.66 -3.42 8.18 -6.15 L 8.58 -6.15 C 7.77 -1.57 10.38 0.46 13.75 0.46 C 18.21 0.46 20.82 -2.38 21.92 -8.76 Z M 15.95 -30.51 L 12.24 -9.63 C 12.06 -8.7 11.48 -8.24 10.61 -8.24 C 9.63 -8.24 8.64 -9.05 8.87 -10.38 L 12.7 -31.9 L 14.44 -31.9 C 15.43 -31.9 16.07 -31.44 15.95 -30.51 Z M 36.31 0 L 46.17 0 L 48.66 -14.21 L 50.4 -14.21 C 51.39 -14.21 52.08 -13.75 51.91 -12.82 L 49.65 0 L 59.51 0 L 61.31 -10.21 C 62.35 -16.12 59.04 -18.62 54.23 -19.26 L 54.29 -19.55 C 59.33 -19.95 63.34 -21.63 64.26 -27.03 L 65.37 -33.23 C 66.47 -39.61 61.48 -40.6 55.1 -40.6 L 43.44 -40.6 L 39.73 -19.49 L 39.56 -18.62 L 39.61 -18.62 Z M 51.74 -21.75 L 50 -21.75 L 51.79 -31.9 L 53.53 -31.9 C 54.52 -31.9 55.16 -31.44 55.04 -30.51 L 53.71 -23.14 C 53.53 -22.21 52.72 -21.75 51.74 -21.75 Z M 75.28 0 L 85.14 0 L 92.28 -40.6 L 82.42 -40.6 Z M 107.59 0 L 117.45 0 L 132.99 -40.6 L 123.13 -40.6 L 115.13 -14.96 L 116.17 -40.6 L 106.31 -40.6 Z M 139.95 0 L 157.99 0 L 159.5 -8.7 L 151.32 -8.7 L 152.83 -17.11 L 160.43 -17.11 L 161.76 -24.65 L 154.16 -24.65 L 155.44 -31.9 L 163.62 -31.9 L 165.13 -40.6 L 147.09 -40.6 Z M 173.94 -8.7 L 172.43 0 L 193.02 0 L 194.53 -8.7 L 183.22 -8.7 L 198.65 -31.9 L 200.16 -40.6 L 179.57 -40.6 L 178.06 -31.9 L 189.37 -31.9 Z M 221.44 -40.6 L 205.9 0 L 215.76 0 L 217.5 -5.51 L 222.95 -5.51 L 222.72 0 L 232.58 0 L 231.3 -40.6 Z M 219.82 -13.05 L 223.76 -25.64 L 223.24 -13.05 Z" stroke-linecap="round" />
</g>
</g>
</g>
<g transform="matrix(1.9211538461538462 0 0 1.9211538461538462 640.2393277271034 690.2929778549862)" id="tagline-e2d0173c-8a52-43df-96e8-b2e8e0edd0d4-logo"  >
<g style=""  paint-order="stroke"   >
		<g transform="matrix(1 0 0 1 0 0)" id="tagline-e2d0173c-8a52-43df-96e8-b2e8e0edd0d4-logo-path-0"  >
<path style="stroke: rgb(255,255,255); stroke-width: 0; stroke-dasharray: none; stroke-linecap: butt; stroke-dashoffset: 0; stroke-linejoin: miter; stroke-miterlimit: 4; fill: rgb(14,35,121); fill-rule: nonzero; opacity: 1;"  paint-order="stroke"  transform=" translate(-158.14, 6.3)" d="M 1.44 0 L 7.24 0 L 7.64 -2.2 L 2.62 -2.2 L 4.72 -14 L 2.12 -14 L -0.04 -1.78 C -0.22 -0.78 0.44 0 1.44 0 Z M 14.24 0 L 19.24 0 C 20.24 0 21.18 -0.78 21.36 -1.78 L 23.52 -14 L 20.92 -14 L 18.9 -2.6 C 18.86 -2.4 18.62 -2.2 18.42 -2.2 L 15.42 -2.2 L 17.52 -14 L 14.92 -14 L 12.76 -1.78 C 12.58 -0.78 13.24 0 14.24 0 Z M 30.22 -6.84 L 26.24 0 L 28.84 0 L 31.3 -4.22 L 32.24 0 L 34.84 0 L 33.3 -6.84 L 37.32 -14 L 34.72 -14 L 32.24 -9.58 L 31.32 -14 L 28.72 -14 Z M 41.84 0 L 46.84 0 C 47.84 0 48.78 -0.78 48.96 -1.78 L 51.12 -14 L 48.52 -14 L 46.5 -2.6 C 46.46 -2.4 46.22 -2.2 46.02 -2.2 L 43.02 -2.2 L 45.12 -14 L 42.52 -14 L 40.36 -1.78 C 40.18 -0.78 40.84 0 41.84 0 Z M 53.84 0 L 56.44 0 L 57.32 -5 L 60.34 -5 C 60.54 -5 60.7 -4.8 60.66 -4.6 L 59.84 0 L 62.44 0 L 63.26 -4.62 C 63.38 -5.3 63.08 -5.92 62.58 -6.2 C 63.22 -6.5 63.7 -7.1 63.82 -7.78 L 64.6 -12.22 C 64.78 -13.22 64.12 -14 63.12 -14 L 56.32 -14 Z M 60.72 -7.2 L 57.72 -7.2 L 58.54 -11.8 L 61.52 -11.8 C 61.72 -11.8 61.88 -11.6 61.86 -11.4 L 61.18 -7.6 C 61.16 -7.4 60.92 -7.2 60.72 -7.2 Z M 71.68 -5.84 L 70.64 0 L 73.24 0 L 74.28 -5.84 L 78.72 -14 L 76.12 -14 L 73.6 -9.38 L 72.72 -14 L 70.12 -14 Z M 81.2 1.4 L 83.2 1.4 L 84.44 -2.2 L 81.84 -2.2 Z M 96.68 0 L 99.28 0 L 100.16 -5 L 103.18 -5 C 103.38 -5 103.54 -4.8 103.5 -4.6 L 102.68 0 L 105.28 0 L 106.1 -4.62 C 106.22 -5.3 105.92 -5.92 105.42 -6.2 C 106.06 -6.5 106.54 -7.1 106.66 -7.78 L 107.44 -12.22 C 107.62 -13.22 106.96 -14 105.96 -14 L 99.16 -14 Z M 103.56 -7.2 L 100.56 -7.2 L 101.38 -11.8 L 104.36 -11.8 C 104.56 -11.8 104.72 -11.6 104.7 -11.4 L 104.02 -7.6 C 104 -7.4 103.76 -7.2 103.56 -7.2 Z M 112.28 0 L 118.08 0 L 118.48 -2.2 L 113.46 -2.2 L 114.12 -5.9 L 118.12 -5.9 L 118.52 -8.1 L 114.52 -8.1 L 115.18 -11.8 L 120.16 -11.8 L 120.56 -14 L 114.76 -14 C 113.76 -14 112.82 -13.22 112.64 -12.22 L 110.8 -1.78 C 110.62 -0.78 111.28 0 112.28 0 Z M 123.28 0 L 130.08 0 C 131.08 0 132.02 -0.78 132.2 -1.78 L 134.04 -12.22 C 134.22 -13.22 133.56 -14 132.56 -14 L 125.76 -14 Z M 129.26 -2.2 L 126.26 -2.2 L 127.98 -11.8 L 130.98 -11.8 C 131.18 -11.8 131.34 -11.6 131.3 -11.4 L 129.74 -2.6 C 129.7 -2.4 129.46 -2.2 129.26 -2.2 Z M 138.88 0 L 144.68 0 L 145.08 -2.2 L 140.06 -2.2 L 140.72 -5.9 L 144.72 -5.9 L 145.12 -8.1 L 141.12 -8.1 L 141.78 -11.8 L 146.76 -11.8 L 147.16 -14 L 141.36 -14 C 140.36 -14 139.42 -13.22 139.24 -12.22 L 137.4 -1.78 C 137.22 -0.78 137.88 0 138.88 0 Z M 152.04 -12.22 L 149.88 0 L 152.48 0 L 153.46 -5.5 C 153.48 -5.7 153.72 -5.9 153.92 -5.9 L 157.52 -5.9 L 157.92 -8.1 L 153.92 -8.1 L 154.58 -11.8 L 159.56 -11.8 L 159.96 -14 L 154.16 -14 C 153.16 -14 152.22 -13.22 152.04 -12.22 Z M 162.68 0 L 165.28 0 L 167.76 -14 L 165.16 -14 Z M 176.08 0 L 179.08 0 L 181.56 -14 L 178.96 -14 L 177.52 -5.92 L 175.96 -14 L 172.96 -14 L 170.48 0 L 173.08 0 L 174.52 -8.08 Z M 186.08 0 L 191.88 0 L 192.28 -2.2 L 187.26 -2.2 L 187.92 -5.9 L 191.92 -5.9 L 192.32 -8.1 L 188.32 -8.1 L 188.98 -11.8 L 193.96 -11.8 L 194.36 -14 L 188.56 -14 C 187.56 -14 186.62 -13.22 186.44 -12.22 L 184.6 -1.78 C 184.42 -0.78 185.08 0 186.08 0 Z M 197.08 0 L 203.88 0 C 204.88 0 205.82 -0.78 206 -1.78 L 207.84 -12.22 C 208.02 -13.22 207.36 -14 206.36 -14 L 199.56 -14 Z M 203.06 -2.2 L 200.06 -2.2 L 201.78 -11.8 L 204.78 -11.8 C 204.98 -11.8 205.14 -11.6 205.1 -11.4 L 203.54 -2.6 C 203.5 -2.4 203.26 -2.2 203.06 -2.2 Z M 220.48 -12.22 L 218.32 0 L 220.92 0 L 221.9 -5.5 C 221.92 -5.7 222.16 -5.9 222.36 -5.9 L 225.96 -5.9 L 226.36 -8.1 L 222.36 -8.1 L 223.02 -11.8 L 228 -11.8 L 228.4 -14 L 222.6 -14 C 221.6 -14 220.66 -13.22 220.48 -12.22 Z M 232.92 0 L 237.92 0 C 238.92 0 239.86 -0.78 240.04 -1.78 L 241.88 -12.22 C 242.06 -13.22 241.4 -14 240.4 -14 L 235.4 -14 C 234.4 -14 233.46 -13.22 233.28 -12.22 L 231.44 -1.78 C 231.26 -0.78 231.92 0 232.92 0 Z M 237.1 -2.2 L 234.1 -2.2 L 235.82 -11.8 L 238.82 -11.8 C 239.02 -11.8 239.18 -11.6 239.14 -11.4 L 237.58 -2.6 C 237.54 -2.4 237.3 -2.2 237.1 -2.2 Z M 244.92 0 L 247.52 0 L 248.4 -5 L 251.42 -5 C 251.62 -5 251.78 -4.8 251.74 -4.6 L 250.92 0 L 253.52 0 L 254.34 -4.62 C 254.46 -5.3 254.16 -5.92 253.66 -6.2 C 254.3 -6.5 254.78 -7.1 254.9 -7.78 L 255.68 -12.22 C 255.86 -13.22 255.2 -14 254.2 -14 L 247.4 -14 Z M 251.8 -7.2 L 248.8 -7.2 L 249.62 -11.8 L 252.6 -11.8 C 252.8 -11.8 252.96 -11.6 252.94 -11.4 L 252.26 -7.6 C 252.24 -7.4 252 -7.2 251.8 -7.2 Z M 267.96 0 L 273.76 0 L 274.16 -2.2 L 269.14 -2.2 L 271.24 -14 L 268.64 -14 L 266.48 -1.78 C 266.3 -0.78 266.96 0 267.96 0 Z M 280.76 0 L 286.56 0 L 286.96 -2.2 L 281.94 -2.2 L 282.6 -5.9 L 286.6 -5.9 L 287 -8.1 L 283 -8.1 L 283.66 -11.8 L 288.64 -11.8 L 289.04 -14 L 283.24 -14 C 282.24 -14 281.3 -13.22 281.12 -12.22 L 279.28 -1.78 C 279.1 -0.78 279.76 0 280.76 0 Z M 293.56 0 L 298.56 0 C 299.56 0 300.5 -0.78 300.68 -1.78 L 301.22 -4.88 C 301.42 -5.96 301 -6.88 300.12 -7.36 L 296.42 -9.4 C 296.24 -9.5 296.1 -9.8 296.12 -10 L 296.38 -11.4 C 296.4 -11.6 296.64 -11.8 296.84 -11.8 L 299.44 -11.8 C 299.64 -11.8 299.8 -11.6 299.76 -11.4 L 299.52 -10 L 302.12 -10 L 302.52 -12.22 C 302.7 -13.22 302.04 -14 301.04 -14 L 296.04 -14 C 295.04 -14 294.1 -13.22 293.92 -12.22 L 293.52 -9.92 C 293.32 -8.84 293.74 -7.92 294.62 -7.44 L 298.32 -5.4 C 298.5 -5.3 298.64 -5 298.62 -4.8 L 298.22 -2.6 C 298.2 -2.4 297.96 -2.2 297.76 -2.2 L 295.16 -2.2 C 294.96 -2.2 294.8 -2.4 294.84 -2.6 L 295.08 -4 L 292.48 -4 L 292.08 -1.78 C 291.9 -0.78 292.56 0 293.56 0 Z M 307.36 0 L 312.36 0 C 313.36 0 314.3 -0.78 314.48 -1.78 L 315.02 -4.88 C 315.22 -5.96 314.8 -6.88 313.92 -7.36 L 310.22 -9.4 C 310.04 -9.5 309.9 -9.8 309.92 -10 L 310.18 -11.4 C 310.2 -11.6 310.44 -11.8 310.64 -11.8 L 313.24 -11.8 C 313.44 -11.8 313.6 -11.6 313.56 -11.4 L 313.32 -10 L 315.92 -10 L 316.32 -12.22 C 316.5 -13.22 315.84 -14 314.84 -14 L 309.84 -14 C 308.84 -14 307.9 -13.22 307.72 -12.22 L 307.32 -9.92 C 307.12 -8.84 307.54 -7.92 308.42 -7.44 L 312.12 -5.4 C 312.3 -5.3 312.44 -5 312.42 -4.8 L 312.02 -2.6 C 312 -2.4 311.76 -2.2 311.56 -2.2 L 308.96 -2.2 C 308.76 -2.2 308.6 -2.4 308.64 -2.6 L 308.88 -4 L 306.28 -4 L 305.88 -1.78 C 305.7 -0.78 306.36 0 307.36 0 Z" stroke-linecap="round" />
</g>
</g>
</g>
</svg>